<svg viewBox="0 0 250 60" xmlns="http://www.w3.org/2000/svg"><path d="m249.69 31.77-17.09 11.73v-6.94l7.46-4.79-7.46-4.82v-6.88zm-232.29 11.73v-6.94l-7.49-4.79 7.49-4.82v-6.88l-17.09 11.7 17.1 11.73z" fill="#9fa0a0"/><path d="m99.78 21.76v16.52c0 1.57.27 2.93.8 4.09s1.28 2.05 2.23 2.67c.96.62 2.09.93 3.41.93 1.18 0 2.22-.26 3.12-.8.9-.53 1.63-1.32 2.19-2.37.56-1.04.91-2.32 1.05-3.83h5.8c-.17 2.69-.77 4.97-1.78 6.85-1.02 1.88-2.4 3.3-4.15 4.27s-3.83 1.45-6.23 1.45-4.66-.54-6.5-1.61-3.26-2.61-4.25-4.6c-1-1.99-1.49-4.34-1.49-7.05v-16.52c0-2.71.5-5.06 1.49-7.07 1-2 2.41-3.54 4.25-4.61s4.01-1.61 6.5-1.61 4.5.48 6.26 1.45 3.13 2.39 4.14 4.27 1.6 4.16 1.77 6.85h-5.8c-.14-1.49-.48-2.76-1.05-3.8-.56-1.04-1.3-1.84-2.21-2.38s-1.94-.81-3.11-.81c-1.32 0-2.45.32-3.41.94-.96.63-1.7 1.52-2.23 2.68s-.8 2.53-.8 4.09zm48.76-7.19c1.03 1.96 1.54 4.28 1.54 6.95v16.95c0 2.65-.51 4.96-1.54 6.94-1.02 1.97-2.49 3.49-4.4 4.54-1.91 1.06-4.15 1.58-6.72 1.58s-4.81-.53-6.72-1.58-3.37-2.57-4.4-4.54-1.54-4.29-1.54-6.94v-16.95c0-2.67.51-4.99 1.54-6.95 1.02-1.96 2.49-3.47 4.4-4.53 1.91-1.05 4.15-1.58 6.72-1.58s4.81.53 6.72 1.58c1.91 1.06 3.37 2.56 4.4 4.53zm-4.26 6.78c0-1.49-.28-2.78-.83-3.87s-1.34-1.93-2.38-2.53c-1.03-.59-2.25-.89-3.64-.89s-2.61.3-3.64.89-1.83 1.43-2.39 2.53c-.56 1.09-.84 2.38-.84 3.87v17.3c0 1.49.28 2.78.84 3.88.56 1.09 1.36 1.93 2.39 2.52s2.25.89 3.64.89 2.61-.29 3.64-.89c1.03-.59 1.83-1.43 2.38-2.52s.83-2.38.83-3.88zm36.67-6.98c.98 1.79 1.46 3.95 1.46 6.49v18.28c0 2.52-.49 4.67-1.46 6.47-.98 1.8-2.4 3.16-4.27 4.09s-4.12 1.39-6.75 1.39h-12.16v-42.19h12.19c2.63 0 4.88.46 6.73 1.39 1.86.93 3.27 2.29 4.25 4.08zm-4.34 6.31c0-2.03-.56-3.6-1.68-4.7s-2.72-1.66-4.79-1.66h-6.65v31.35h6.65c2.07 0 3.67-.55 4.79-1.65s1.68-2.67 1.68-4.7v-18.63zm36.11-6.35v-5.43h-22.61v42.2h22.61v-5.43h-16.89v-12.83h14.57v-5.4h-14.57v-13.12h16.89z"/><path d="m79.39 7.97h-40.16c-1.07 0-1.95.87-1.95 1.95v40.16c0 1.07.87 1.95 1.95 1.95h40.16c1.07 0 1.95-.87 1.95-1.95v-40.16c0-1.07-.87-1.95-1.95-1.95zm-21.01 21.54c-.13-.18-.27-.36-.43-.52-.41-.41-.89-.74-1.44-.98s-1.13-.35-1.75-.35-1.24.12-1.8.35c-.56.24-1.05.56-1.46.98-.41.41-.74.9-.98 1.45s-.35 1.14-.35 1.76v14.39h-6.05v-33.19h6.05v9.67c.72-.55 1.47-.93 2.24-1.16s1.55-.34 2.35-.34c1.28 0 2.48.25 3.62.67v7.28zm16.13-.59h-9.18v3.03c0 .09.01.17.01.25v3.9c.02.59.12 1.14.34 1.66.24.55.56 1.04.98 1.45.41.41.9.74 1.46.99.56.24 1.16.37 1.8.37h4.59v6.03h-15.2v-10.34c0-.1-.01-.19-.01-.28v-22.58h6.03v9.49h9.18z" fill="#2ea7e0"/></svg>