<svg viewBox="0 0 900 140" xmlns="http://www.w3.org/2000/svg"><path d="m71.16 49.99c-.76-.4-1.55-.63-2.45-.67-4.98.44-9.84 1.01-14.44 1.69-1.17.16-2.36.34-3.58.55-3.59.64-7.55 1.41-11.79 2.3-1.02.24-1.77.44-2.26.58-.66.19-1.1.53-1.32.99-.21.44-.2 1.06.02 1.95s.67 1.53 1.34 1.92c.66.38 1.41.47 2.21.27 4.08-1.04 7.23-1.77 9.38-2.16l1.2-.24c1.36-.26 2.66-.48 3.9-.66-.15.77-.44 2.12-.96 4.48-.67 3.03-1.48 6.87-2.41 11.41-.94 4.6-1.57 7.98-1.85 10.05-.28 2.09-.43 3.92-.43 5.45s.12 2.82.38 3.8v.02c.29.97.85 1.66 1.68 2.06.53.25 1.03.38 1.5.38.25 0 .49-.04.73-.11.5-.15 1.16-.56 1.49-1.61.04-.14.04-.28-.02-.42-.53-1.28-.79-2.72-.77-4.28.02-1.6.53-5.09 1.53-10.36 1-5.29 1.97-9.87 2.89-13.63l1.95-8.28c.97-.14 2.24-.27 3.77-.39 1.76-.14 4.01-.31 6.76-.51.45.04.97 0 1.56-.14.47-.1 1.28-.48 1.35-1.8.05-.89-.36-1.75-1.22-2.56-.04-.04-.09-.07-.13-.1z"/><path d="m104.68 80.25c-.19-.08-.4-.07-.57.04-.86.53-1.73 1.13-2.61 1.78-.86.64-1.83 1.34-2.91 2.1-.03.02-.07.05-.09.08-.4.43-.81.6-1.29.52-.24-.28-.38-.63-.43-1.06-.08-.58-.07-1.68 0-3.27.08-1.59.68-5.61 1.8-11.95 0-.05.01-.11 0-.16-.09-1.07-.65-2.12-1.65-3.12-1.03-1.03-2.13-1.52-3.27-1.44-.71.04-2.11.5-6.09 3.92-2.28 1.96-4.4 4.15-6.34 6.52.32-1.9.69-3.84 1.09-5.81.58-2.81 1.21-5.88 1.87-9.2.65-3.27 1.55-6.54 2.66-9.72.02-.06.03-.13.03-.2 0-.34-.02-.68-.07-.99-.05-.36-.2-.75-.45-1.14-.04-.07-.1-.13-.17-.18-1.02-.71-1.72-1.08-2.22-1.18-.04 0-.08-.01-.12-.01h-.3c-.38 0-.7.1-.99.31-.31.25-.54.67-.69 1.29-1 3.85-2.04 8.43-3.08 13.6-1.04 5.16-1.9 10.15-2.57 14.84-.66 4.69-1.2 9.05-1.6 12.96-.11 1.1.36 1.94 1.36 2.38.82.3 1.54.47 2.15.49h.07c.82 0 1.38-.55 1.5-1.53.08-2.25.49-4.26 1.22-5.99.74-1.76 1.58-3.28 2.49-4.52.93-1.26 2.15-2.77 3.62-4.49 1.46-1.7 2.89-3.16 4.25-4.34.86-.75 1.61-1.35 2.24-1.8-.08.92-.3 2.47-.77 5.08-.63 3.49-.89 6.35-.76 8.49 0 1.62.35 3.13 1.03 4.5.03.05.06.1.1.14.53.57 1.18 1.07 1.94 1.48.82.44 1.77.59 2.83.43 1.03-.16 1.92-.54 2.64-1.12 1.34-1.06 2.6-2.22 3.73-3.42.5-.5.79-1.12.87-1.85.07-.64.03-1.32-.1-2.02-.04-.2-.17-.37-.35-.45z"/><path d="m140.29 77.75c-.16-.06-.34-.04-.5.05-1.61.91-2.82 1.62-3.71 2.19-.86.54-1.7 1.01-2.52 1.38-.56.25-.89.15-1.21-.39-.44-.73-.82-2.12-1.13-4.12-.27-1.67-.39-4.06-.35-7.11.12-.46.22-1 .3-1.67.08-.65.2-1.37.35-2.13.25-1.05-.02-1.99-.78-2.7-.69-.65-1.49-1.04-2.3-1.17-.75-.22-1.55-.08-2.4.42-.36-.33-.71-.66-1.06-1-.49-.47-1.05-.89-1.67-1.24-.64-.34-1.27-.6-1.87-.77-.72-.21-1.46-.19-2.21.06-.78.23-1.43.61-1.93 1.1-1.76 1.6-3.28 3.45-4.53 5.52-2.22 3.96-3.97 8.06-5.19 12.21-.55 2.23-.48 4.45.19 6.59.31 1.06.83 1.96 1.55 2.65.72.7 1.61 1.18 2.64 1.42.4.1.8.14 1.18.14.62 0 1.21-.12 1.75-.37 1.13-.38 2.28-.95 3.46-1.75 1.83-1.59 3.53-3.34 5.05-5.2 1.16-1.43 2.29-2.89 3.35-4.38.1.73.23 1.37.38 1.91.4 1.62.77 2.91 1.1 3.83.35.99.89 1.85 1.59 2.55.71.71 1.48 1.19 2.28 1.42.92.26 1.99-.11 3.3-1.14 1.09-.89 2.14-1.77 3.15-2.63 1.04-.89 1.73-1.53 2.16-2.03.62-.96.87-1.67.79-2.26-.09-.65-.53-1.14-1.23-1.37zm-14.26-9.66c-.57 1.65-1.13 2.89-1.69 3.7-2.61 4-5.75 7.69-9.34 11.01-.42.46-.91.82-1.46 1.06-.38.17-.74.26-1.06.27-.29-.72-.39-1.56-.31-2.53.09-1.16.36-2.31.78-3.44.63-1.81 1.45-3.76 2.44-5.78.98-2 1.99-3.67 3.01-4.96 1.26-1.6 1.82-2.17 2.03-2.34.38-.25.71-.38 1.03-.38.39 0 .76.19 1.13.58.38.42.86.9 1.42 1.43.51.47 1.19.93 2.02 1.37z"/><path d="m179.36 77.82c-3.45 2.22-5.71 3.66-6.71 4.27-.94.57-1.69.95-2.24 1.11-.44.13-.78.14-.98.04 0-.01-.23-.29-.11-1.66.16-.85.43-2.43.82-4.84.38-2.36.74-4.82 1.05-7.28.22-1.16.12-2.25-.31-3.23-.41-.94-1-1.76-1.7-2.42-.39-.44-.86-.83-1.38-1.18-.03-.02-.06-.04-.09-.05-.67-.3-1.3-.37-2.09-.22-.73.18-1.36.49-1.86.9-3.07 2.47-5.62 4.94-7.57 7.36-1.33 1.65-2.57 3.34-3.72 5.06.12-.52.27-1.1.44-1.74.6-2.19 1.34-4.81 2.22-7.84.14-.42.21-.85.21-1.28 0-.53-.2-1-.6-1.4-.34-.34-.78-.61-1.3-.8-.57-.22-.98-.35-1.26-.39-.03 0-.13 0-.16 0-.3 0-.73.13-1.04.68-.24.33-.46.82-.7 1.52-2 7.38-3.55 14.38-4.6 20.8-.14.86-.01 1.68.39 2.44.39.74.94 1.33 1.68 1.77.69.34 1.23.51 1.68.51.2 0 .38-.03.54-.1.51-.21.91-.74 1.23-1.65.12-.47.26-.96.41-1.48.15-.49.32-.96.48-1.31 1.48-2.43 2.9-4.71 4.24-6.77 1.33-2.04 2.83-4.07 4.48-6.03 1.63-1.95 2.94-3.33 3.9-4.11.69-.56 1.33-1.01 1.9-1.32.08.43.1 1.08-.06 2.07-.22 1.39-.52 3.01-.9 4.79-.38 1.8-.69 3.22-.93 4.24-.25 1.06-.4 2.17-.44 3.27-.09 1.47.33 2.84 1.23 4.08.92 1.25 2.13 2.02 3.61 2.29 1.46.26 2.91.02 4.3-.72 1.26-.63 2.53-1.57 3.77-2.79 1.21-1.19 2.03-2.04 2.46-2.56.49-.63.82-1.26.99-1.88.19-.74 0-1.45-.53-2.04-.2-.22-.53-.27-.79-.1z"/><path d="m206.96 82.87c-1.26-.35-3.13-.99-5.56-1.88-2.44-.9-4.62-1.76-6.48-2.55-1.15-.49-1.86-.8-2.32-1 .98-.88 2.82-2.31 5.48-4.27 3.4-2.51 6.01-4.3 7.77-5.34.38-.24.72-.54 1.03-.92.36-.44.52-.95.46-1.48-.05-.46-.25-.94-.56-1.39-.54-.91-1.18-1.42-1.91-1.51-.72-.09-1.48.23-2.21.94-.47.39-1.6 1.25-3.38 2.57-1.79 1.33-3.78 2.83-5.98 4.5-1.47 1.12-2.67 2.08-3.6 2.87.36-3.53.9-7.12 1.59-10.71.8-4.12 1.75-8.38 2.81-12.6.25-.7.23-1.44-.07-2.21-.31-.8-.86-1.33-1.66-1.6-.64-.19-1.36-.3-2.33-.14-.21.03-.39.18-.47.37-.37.92-.74 2.13-1.08 3.62-.34 1.47-.79 3.78-1.33 6.88s-1.14 6.85-1.78 11.14c-.64 4.32-1.07 8.52-1.27 12.48s-.24 7.03-.12 9.11c0 1.05.16 1.82.48 2.36.36.61.99.98 1.87 1.08.22.03.44.04.67.04.56 0 1.16-.08 1.78-.23.31-.08.51-.38.46-.7-.43-2.56-.6-4.86-.5-6.86.08-1.66.17-3.18.27-4.54 1.14.5 2.85 1.22 5.1 2.15 2.88 1.19 5.64 2.17 8.2 2.92 2.6.76 4.18 1.17 4.82 1.25.19.02.38-.04.51-.17.62-.62.98-1.35 1.08-2.17.07-.59-.07-1.63-1.77-1.99z"/><path d="m265.45 60.55c-.41-.28-.88-.44-1.37-.47-.56-.04-1.17.27-1.87.92-.04.04-.08.08-.11.13-2.41 3.93-4.46 7.33-6.1 10.11-1.53 2.59-2.74 4.69-3.62 6.27-.55-.06-1.08-.21-1.58-.43-.57-.25-1.02-.64-1.36-1.18-.39-.62-.74-1.27-1.05-1.93-1.66-3.44-2.94-7.11-3.81-10.87-.23-1.4-.97-2.43-2.18-3.03-.54-.29-1.01-.44-1.44-.44h-.24c-.06 0-.12 0-.18.03-.81.24-1.04.71-1.09 1.06-.05.33-.03.79.08 1.57 1.12 3.68 2.42 7.45 3.87 11.17.59 1.72 1.53 3.31 2.81 4.71 1.14 1.25 2.53 2.19 4.15 2.8-.35.68-.9 1.68-1.64 3-1.03 1.85-2.22 4.12-3.51 6.75-1.31 2.67-2.34 5-3.06 6.92-.19.46-.29.94-.31 1.4-.03.6.22 1.13.72 1.51.39.3.81.53 1.22.66.7.25 1.25.37 1.69.37h.12c.62-.04 1.1-.48 1.44-1.32.02-.05.03-.09.04-.14.31-2.21 1.62-5.4 3.91-9.49 2.31-4.14 4.87-8.64 7.62-13.38 2.73-4.71 5.33-8.87 7.75-12.42.32-.54.52-1.01.61-1.44.12-.53-.02-1.1-.42-1.68-.34-.5-.71-.89-1.09-1.16z"/><path d="m290.39 60.29c-1.98-1.39-4.12-1.59-5.96-.73-.49.2-1.04.45-1.67.73-.53.24-.69.06-.77-.03-.06-.06-.12-.11-.2-.15-.55-.25-1.12-.46-1.7-.61-.71-.18-1.44-.05-2.19.4-.68.41-1.37 1.09-2.15 2.15-1.13 1.98-2.21 4.21-3.2 6.61-1 2.43-1.66 4.93-1.94 7.4-.21 1.3-.23 2.63-.06 3.97.17 1.35.58 2.71 1.23 4.05.67 1.38 1.58 2.47 2.69 3.24.51.38 1.13.76 1.84 1.11.74.37 1.43.6 2.05.69.39.06.77.09 1.14.09 1.82 0 3.46-.71 4.87-2.13 1.95-1.91 3.7-4.03 5.21-6.31 1.5-2.27 2.66-4.33 3.46-6.12.81-1.83 1.25-3.49 1.29-4.93.04-1.42-.04-2.58-.26-3.5-.71-2.48-1.94-4.46-3.67-5.94zm-2.23 13.32c-1.53 3.18-3.95 6.43-7.15 9.63-.58.5-1.15.94-1.71 1.31-.42.28-.83.33-1.27.18-.52-.19-.97-.5-1.37-.97s-.69-1.05-.88-1.74c-.65-2.09-.71-4.23-.18-6.35.67-2.4 1.35-4.24 2.03-5.48.54-.99.95-1.75 1.22-2.27 1.19.18 1.98.04 2.46-.42.38-.36 1.03-.98 1.93-1.84.81-.78 1.94-1.3 3.37-1.57.56-.13 1.08-.1 1.56.09.51.2.94.51 1.3.94.35.41.55.91.62 1.54.22 1.48-.43 3.81-1.94 6.94z"/><path d="m326.05 85.72c-.42-.49-1.01-1.73-1.49-4.85-.39-2.55-.09-6.63.91-12.16.11-.86.34-1.67.67-2.42.02-.04.03-.08.04-.12.41-1.82.38-2.99-.09-3.68-.46-.67-1.39-1.11-2.79-1.34-.64-.13-1.18-.06-1.61.23-.44.29-.73.78-.85 1.39-.2.63-.42 1.28-.65 1.93-.22.61-.52 1.21-.9 1.77-3.03 4.51-5.71 8.24-7.96 11.09-2.25 2.84-3.97 4.86-5.13 6.03-.27.3-.58.53-.92.7-.23.11-.44.12-.67.04-.45-.51-.78-1.12-.98-1.82-.15-.52-.26-1.76.08-4.64.31-2.35.99-4.86 2.01-7.45 1.01-2.57 1.88-4.24 2.65-5.06.65-.96.87-1.66.67-2.21-.16-.46-.57-.94-1.29-1.52-.41-.31-.84-.57-1.3-.75-.67-.27-1.2-.2-1.78.09-.53.29-.95.66-1.28 1.17-1.91 3.85-3.17 7.42-3.76 10.59-.59 3.16-.86 5.62-.82 7.39.47 2.8 1.24 4.76 2.38 6.01 1.09 1.2 1.97 2 2.69 2.46 1.53.97 3.4.98 4.84-.05.66-.47 1.26-1.01 1.77-1.61 1.49-1.7 3.05-3.64 4.61-5.77 1.26-1.72 2.71-3.65 4.32-5.77-.04 2.1 0 3.83.12 5.13.16 1.7.42 3.19.77 4.45.36 1.31 1 2.51 1.88 3.55.86 1.15 1.8 1.74 2.82 1.74.1 0 .2 0 .3-.02 1.14-.13 1.81-.45 2.13-1.01.3-.55.28-1.14-.06-1.68-.2-.42-.63-1.01-1.34-1.85z"/><path d="m383.32 65.06s-.08 0-.12.02c-3.08.84-5.81 1.52-8.11 2.01-1.92.42-3.63.74-5.09.98.28-1.69.6-3.71.94-6.02.39-2.66.98-5.14 1.75-7.37.79-2.28 1.25-3.64 1.39-4.08.08-.26.22-.52.4-.79.21.09.44.22.7.39.47.31 1.08.76 1.84 1.33.69.53 1.22 1.11 1.56 1.71.44.78.8 1.26 1.15 1.5.31.21.67.37 1.09.47.38.16.97.21 1.76-.35.71-.5.94-1.23.62-2.07-.66-1.33-1.65-2.71-2.93-4.09-1.29-1.39-2.76-2.54-4.38-3.41-1.39-.74-2.45-1.1-3.24-1.1-.22 0-.43.03-.56.08-.92.2-1.54.78-1.82 1.68-.49.82-.91 1.74-1.25 2.73-.35 1.02-.83 2.9-1.47 5.77-.62 2.8-1.19 5.65-1.69 8.47-.45 2.51-.81 4.37-1.08 5.55-.61.11-1.33.17-2.16.18-1 .02-2.01-.07-2.95-.25-.57-.17-1.2-.06-1.85.33-.61.37-1.09.94-1.42 1.7-.08.19-.06.4.04.57.28.45.62.96 1 1.54.47.72 1.12 1.18 1.94 1.38.72.18 1.4.24 2 .2 1.1-.03 2.12-.05 3.07-.06-.21 3.25-.29 6.01-.23 8.21.06 2.35.24 4.33.52 5.86.28 1.97.71 3 1.38 3.35.38.2.79.3 1.22.3.24 0 .5-.03.75-.1.72-.18 1.38-.75 1.94-1.7.07-.12.1-.25.08-.39-.12-1.08-.38-2.23-.73-3.34-.31-2.03-.41-4.02-.3-5.9.11-1.82.3-4.19.56-7.05 2.4-.4 4.87-1 7.34-1.78 2.65-.83 5.39-2.1 8.15-3.77.06-.04.12-.09.17-.15.46-.59.43-1.29-.09-1.87-.45-.51-1.08-.74-1.88-.69z"/><path d="m408.64 60.29c-1.98-1.39-4.11-1.59-5.96-.73-.49.2-1.04.45-1.67.73-.53.24-.68.06-.77-.03-.06-.06-.12-.11-.2-.15-.55-.25-1.12-.46-1.7-.61-.7-.18-1.44-.05-2.19.4-.68.41-1.37 1.09-2.15 2.15-1.13 1.99-2.21 4.21-3.2 6.61-1 2.43-1.66 4.93-1.94 7.4-.21 1.3-.23 2.63-.06 3.97.17 1.35.58 2.71 1.23 4.05.67 1.38 1.58 2.47 2.69 3.24.51.38 1.13.76 1.84 1.11.74.37 1.43.6 2.05.69.39.06.77.09 1.14.09 1.82 0 3.46-.71 4.87-2.13 1.95-1.91 3.7-4.03 5.21-6.31 1.5-2.27 2.66-4.33 3.46-6.12.81-1.83 1.25-3.49 1.29-4.93.04-1.41-.04-2.58-.26-3.5-.71-2.48-1.94-4.46-3.67-5.94zm-2.23 13.32c-1.53 3.18-3.95 6.43-7.15 9.63-.58.5-1.15.94-1.71 1.31-.42.28-.83.33-1.27.18-.52-.18-.97-.5-1.37-.96-.4-.47-.69-1.05-.88-1.74-.65-2.09-.71-4.23-.18-6.35.67-2.39 1.35-4.24 2.03-5.48.54-.99.95-1.75 1.22-2.27 1.19.18 1.98.04 2.46-.42.38-.36 1.03-.98 1.93-1.84.81-.78 1.94-1.3 3.37-1.56.56-.13 1.08-.1 1.56.09.51.21.94.51 1.3.94.35.41.55.91.62 1.54.22 1.48-.43 3.81-1.94 6.94z"/><path d="m440.24 62.33c-.45-.63-1.13-1-2.03-1.11-.95-.38-2.18-.45-3.77-.22-1.58.23-3.55 1.01-5.88 2.3-1.71.95-3.29 2.13-4.7 3.5 0-.01 0-.03 0-.04.1-.98.35-2.5.76-4.61.04-.72 0-1.27-.11-1.69-.14-.46-.4-.85-.78-1.15-.33-.26-.78-.5-1.36-.72-.04-.02-.08-.03-.12-.03-.7-.11-1.25-.09-1.74.2-.03.02-.06.04-.09.06-.44.38-.72.99-.87 1.89-.32 2.53-.62 4.84-.9 6.93s-.53 4.01-.75 5.76-.47 4.2-.73 7.29c-.27 3.15-.38 5.11-.33 5.96 0 .72.22 1.42.64 2.08.42.65.97 1.15 1.55 1.44.41.28.83.42 1.26.42.31 0 .62-.08.93-.23.74-.37 1.11-1.06 1.05-2.02-.27-1.43-.38-2.87-.32-4.26.06-1.41.35-3.93.85-7.49.7-1.33 1.83-2.9 3.37-4.64 1.56-1.78 3.18-3.2 4.81-4.23 1.62-1.02 3.11-1.67 4.44-1.94 1.23-.25 2.13-.18 2.66.2.03.02.06.04.1.06.73.34 1.47.25 2.13-.25.92-.69.87-1.46.77-1.86-.14-.52-.41-1.04-.82-1.61z"/><path d="m494.39 62.33c-.45-.63-1.13-1-2.03-1.11-.95-.38-2.18-.45-3.77-.22-1.58.23-3.55 1.01-5.88 2.3-1.71.95-3.29 2.13-4.7 3.5 0-.01 0-.03 0-.04.1-.98.35-2.5.76-4.61.04-.72 0-1.27-.11-1.69-.14-.46-.4-.85-.78-1.15-.33-.26-.78-.5-1.36-.72-.04-.02-.08-.03-.12-.03-.7-.11-1.25-.09-1.74.2-.03.02-.06.04-.09.06-.44.38-.72.99-.87 1.89-.32 2.53-.62 4.84-.9 6.93s-.53 4.01-.75 5.76-.47 4.2-.73 7.29c-.27 3.15-.38 5.11-.33 5.96 0 .72.22 1.42.64 2.08.42.65.97 1.15 1.55 1.44.41.28.83.42 1.26.42.31 0 .62-.08.93-.23.74-.37 1.11-1.06 1.05-2.02-.27-1.43-.38-2.87-.32-4.26.06-1.41.35-3.93.85-7.49.7-1.33 1.83-2.9 3.37-4.64 1.56-1.78 3.18-3.2 4.81-4.23 1.62-1.02 3.11-1.67 4.44-1.94 1.23-.25 2.13-.18 2.66.2.03.02.06.04.1.06.73.34 1.47.25 2.13-.25.92-.69.87-1.46.77-1.86-.14-.52-.41-1.04-.82-1.61z"/><path d="m525.3 76.93c-.18-.08-.38-.08-.55.02-.98.53-2.17 1.23-3.53 2.07-1.35.84-2.98 1.75-4.82 2.72-1.85.97-3.63 1.85-5.29 2.6-1.15.5-2.12.81-2.89.92-.68.1-1.24.06-1.69-.11-.28-.22-.57-.48-.87-.77-.26-.26-.44-.57-.53-.96-.37-1.4-.42-2.78-.17-4.09.75-.02 1.46-.14 2-.42 2.43-.81 5.18-2.05 8.15-3.69 3.03-1.67 4.94-2.89 5.79-3.71.49-.4.96-.97 1.4-1.69.45-.75.72-1.7.78-2.85.07-1.15-.05-2.06-.35-2.8-.27-.67-.6-1.34-.98-2.03-.61-.96-1.45-1.77-2.49-2.42-.94-.58-1.9-.88-2.85-.88-.25 0-.48.03-.64.07-1.58.25-3.28.84-5.04 1.75-1.77.92-3.55 2.4-5.31 4.42-1.75 2.02-3 4.03-3.7 5.97-.46 1.17-.79 2.03-1.01 2.57-.31-.03-.66.02-1.03.14-.75.25-1.15 1.05-1.2 2.37v.1c.09.68.53 1.51 1.35 2.52-.16 1.38 0 2.87.47 4.41.39 1.76 1.15 3.21 2.28 4.32 1.11 1.09 2.46 1.88 4.02 2.35.82.25 1.63.37 2.43.37.72 0 1.43-.1 2.11-.31.99-.29 1.98-.68 2.94-1.16.93-.46 1.81-.92 2.64-1.37.85-.46 2.15-1.34 3.96-2.7 1.81-1.33 3.26-2.43 4.3-3.27.03-.02.06-.05.08-.08.72-.85 1.14-1.62 1.28-2.36.18-.9-.2-1.62-1.06-2.03zm-19.14-2.77c.63-1.55 1.42-2.95 2.33-4.17 1.15-1.54 2.32-2.8 3.48-3.75 1.16-.94 2.3-1.65 3.38-2.1.46-.17.89-.25 1.29-.25.57 0 1.08.17 1.54.52.27.21.98.75-.15 2.59-.67.93-1.93 1.96-3.74 3.06-1.87 1.13-3.63 2.09-5.25 2.86-1.07.51-2.03.92-2.87 1.23z"/><path d="m562.47 77.75c-.17-.06-.35-.04-.5.05-1.61.91-2.82 1.62-3.71 2.19-.86.55-1.7 1.01-2.52 1.38-.56.25-.89.15-1.21-.39-.44-.73-.82-2.12-1.13-4.12-.27-1.67-.39-4.06-.35-7.11.12-.46.22-1 .3-1.67.08-.64.2-1.37.35-2.13.25-1.05-.02-1.99-.78-2.7-.69-.65-1.49-1.04-2.3-1.17-.75-.22-1.55-.08-2.4.42-.36-.33-.71-.66-1.06-1-.5-.47-1.05-.89-1.67-1.24-.64-.34-1.27-.6-1.87-.77-.72-.21-1.46-.19-2.21.06-.78.23-1.44.61-1.93 1.1-1.76 1.6-3.28 3.45-4.52 5.52-2.22 3.96-3.96 8.06-5.19 12.21-.55 2.23-.48 4.45.19 6.59.31 1.06.83 1.96 1.55 2.65.72.7 1.61 1.18 2.64 1.42.4.1.8.14 1.18.14.62 0 1.21-.12 1.75-.37 1.13-.38 2.27-.95 3.46-1.75 1.83-1.58 3.53-3.33 5.05-5.2 1.16-1.43 2.28-2.89 3.35-4.38.1.73.23 1.37.38 1.91.4 1.62.77 2.91 1.1 3.83.35.99.89 1.85 1.59 2.55.71.71 1.48 1.19 2.28 1.42.91.26 1.99-.11 3.3-1.14 1.09-.89 2.14-1.77 3.15-2.63 1.04-.89 1.72-1.53 2.16-2.03.62-.96.87-1.67.79-2.26-.09-.65-.53-1.14-1.23-1.37zm-14.27-9.66c-.57 1.65-1.13 2.89-1.69 3.7-2.61 4-5.75 7.69-9.34 11.01-.42.46-.91.82-1.46 1.06-.38.17-.74.26-1.06.27-.29-.72-.39-1.57-.31-2.53.09-1.16.36-2.31.78-3.44.63-1.81 1.45-3.76 2.44-5.78.98-2 1.99-3.67 3.01-4.96 1.26-1.6 1.82-2.17 2.03-2.34.38-.25.71-.38 1.03-.38.39 0 .76.19 1.13.58.37.42.85.9 1.43 1.43.51.47 1.19.93 2.02 1.37z"/><path d="m589.87 77.91c-.59-.31-1.12-.51-1.58-.6-.14-.03-.29 0-.42.06-3.36 1.84-6.71 3.77-9.97 5.74-1.5.9-3.17 1.34-5.07 1.3-.21.03-.44-.02-.7-.13-.22-.1-.36-.23-.44-.43-.04-.09-.16-.52-.11-2.12.86-6.07 3.22-11.57 7.01-16.36 1.33-1.1 2.4-1.71 3.2-1.81.65-.08 1.59.64 2.64 2.05.46 1.08 1.02 1.76 1.7 2.06.53.24 1.38.34 2.37-.52.88-.76.75-1.97-.4-3.62-1.09-1.38-2.33-2.52-3.7-3.39-.76-.51-1.58-.92-2.44-1.22-.54-.18-1.12-.27-1.7-.27-.38 0-.74.05-1.02.13-.94.18-1.8.58-2.53 1.18-.69.56-1.31 1.16-1.86 1.79-1.92 2.25-3.48 4.79-4.62 7.55-1.13 2.72-1.99 5.08-2.56 7.03-.58 2-.89 3.52-.93 4.64-.17 2.04.46 4.01 1.87 5.88 1.28 1.69 3 2.55 5.1 2.55.29 0 .58-.02.88-.05 1.56-.17 3.07-.62 4.49-1.33 3.53-1.81 7.11-3.7 10.67-5.64.86-.56 1.3-1.37 1.27-2.37-.03-1.27-.66-1.86-1.17-2.12z"/><path d="m625.72 80.25c-.19-.08-.4-.07-.57.04-.86.53-1.73 1.13-2.61 1.78-.86.64-1.83 1.34-2.91 2.1-.03.02-.07.05-.09.08-.4.43-.82.6-1.28.52-.24-.28-.38-.63-.44-1.06-.08-.58-.07-1.68 0-3.27.08-1.6.68-5.62 1.8-11.95 0-.05.01-.11 0-.16-.09-1.07-.65-2.12-1.65-3.12-1.03-1.03-2.12-1.53-3.27-1.44-.71.04-2.11.5-6.09 3.92-2.28 1.96-4.4 4.15-6.34 6.52.32-1.9.69-3.84 1.09-5.81.58-2.81 1.21-5.88 1.87-9.2.65-3.27 1.55-6.54 2.66-9.72.02-.06.03-.13.03-.2 0-.34-.02-.68-.07-.99-.05-.37-.2-.75-.45-1.14-.04-.07-.1-.13-.17-.18-1.02-.71-1.72-1.08-2.22-1.18-.04 0-.08-.01-.12-.01h-.3c-.38 0-.7.1-.99.31-.31.25-.54.67-.69 1.29-1.01 3.86-2.04 8.44-3.08 13.6s-1.91 10.15-2.57 14.84c-.66 4.68-1.2 9.04-1.6 12.96-.11 1.1.36 1.94 1.36 2.38.82.3 1.54.47 2.15.49h.07c.82 0 1.38-.55 1.5-1.53.08-2.25.49-4.26 1.22-5.99.74-1.76 1.58-3.28 2.49-4.52.93-1.27 2.15-2.78 3.62-4.49 1.46-1.7 2.89-3.16 4.25-4.34.86-.75 1.61-1.35 2.24-1.8-.08.92-.3 2.47-.77 5.09-.63 3.49-.89 6.35-.76 8.49 0 1.62.35 3.13 1.03 4.5.03.05.06.1.1.14.53.57 1.18 1.07 1.94 1.48.82.45 1.77.59 2.83.43 1.03-.16 1.92-.54 2.64-1.12 1.34-1.06 2.6-2.22 3.73-3.42.5-.5.79-1.12.87-1.85.07-.64.03-1.31-.1-2.01-.04-.2-.17-.37-.35-.45z"/><path d="m644.91 51.96c.32.6.1 1.07-.26 1.28-.12.07-.35.18-1.04.41-3.27.63-6.5 1.2-9.68 1.71-.26.05-.51.07-.74.07-1.3 0-2.07-.67-2.51-1.28-.72-1.01-.89-2.09-.5-3.21.07-.21.26-.37.48-.4 3.06-.48 6.25-.85 9.46-1.09.48-.11 1.32-.07 2.08.14.7.25 1.29.65 1.8 1.2.49.53.78.9.93 1.17zm-7.44 10.39c-.32-.16-1.31-.66-2-.12-.35.27-.66.72-.94 1.39-.02.04-.03.09-.04.14-.68 3.88-1.27 7.4-1.75 10.47-.48 3.08-.8 5.48-.94 7.13-.14 1.68-.11 3.37.09 5.01.04.34.11.7.19 1.08.11.52.42.95.88 1.23.42.26.96.4 1.62.4.69 0 1.39-.31 2.07-.91 1.1-.99.41-2.85.09-3.61.04-1.21.17-2.86.38-4.92.22-2.12.56-4.26 1.01-6.35s.99-4.16 1.59-6.16c0-.02.01-.04.01-.06.13-.65.19-1.17.19-1.6 0-.52-.23-1.08-.7-1.7-.44-.57-1.03-1.05-1.75-1.41z"/><path d="m683.93 77.82c-3.39 2.18-5.71 3.66-6.71 4.27-.94.57-1.69.95-2.24 1.11-.44.13-.78.14-.99.04 0-.01-.23-.29-.11-1.66.16-.85.43-2.46.82-4.84.38-2.36.74-4.82 1.05-7.28.22-1.16.12-2.25-.31-3.23-.41-.94-1-1.76-1.7-2.42-.39-.44-.86-.83-1.38-1.18-.03-.02-.06-.04-.09-.05-.67-.3-1.31-.37-2.09-.22-.73.18-1.36.49-1.86.9-3.07 2.47-5.62 4.94-7.57 7.36-1.33 1.65-2.57 3.34-3.72 5.06.12-.52.27-1.1.44-1.74.6-2.19 1.34-4.81 2.22-7.84.14-.42.21-.85.21-1.28 0-.53-.2-1-.6-1.4-.34-.34-.78-.61-1.3-.8-.57-.22-.98-.35-1.26-.39-.03 0-.13 0-.16 0-.3 0-.73.13-1.04.68-.24.33-.46.82-.7 1.52-2.01 7.38-3.55 14.38-4.6 20.8-.14.86 0 1.68.39 2.44.39.74.94 1.33 1.69 1.77.69.34 1.23.51 1.68.51.2 0 .38-.03.54-.1.51-.21.91-.74 1.23-1.65.12-.47.25-.96.41-1.48.15-.49.32-.96.48-1.31 1.48-2.43 2.9-4.71 4.24-6.77 1.33-2.04 2.83-4.07 4.48-6.03 1.64-1.95 2.95-3.33 3.9-4.11.69-.56 1.33-1 1.9-1.32.08.43.1 1.08-.06 2.07-.22 1.39-.52 3-.9 4.79-.38 1.8-.69 3.22-.93 4.24-.25 1.06-.4 2.17-.44 3.27-.09 1.47.32 2.84 1.23 4.08.91 1.25 2.13 2.02 3.61 2.29 1.46.26 2.91.02 4.3-.72 1.26-.63 2.53-1.57 3.77-2.79 1.21-1.19 2.03-2.04 2.46-2.56.49-.63.82-1.26.99-1.88.19-.74 0-1.45-.53-2.04-.2-.22-.53-.27-.79-.1z"/><path d="m712.21 77.72c-.17-.12-.39-.15-.58-.08l-.62.24c.22-1.81.51-3.89.84-6.19.2-1.13.4-2.32.59-3.52.22-.89.24-1.81.07-2.76-.19-1.03-.77-1.87-1.72-2.48-.1-.06-.22-.1-.33-.1-.42 0-.81-.02-1.16-.07-.25-.35-.52-.72-.8-1.09-1.05-1.66-2.43-2.7-4.14-3.11-.44-.09-.87-.13-1.27-.13-1.29 0-2.6.46-3.95 1.41-2 1.68-3.99 3.89-5.9 6.57-1.88 2.66-3.21 5.4-3.95 8.15-.78 2.87-.32 5.16 1.37 6.78 1.68 1.62 3.7 2.14 5.98 1.57 1.18-.25 2.38-.72 3.56-1.4 2.1-1.23 3.65-2.43 4.62-3.57.42-.5.82-.99 1.18-1.47-.04.85-.07 1.5-.09 1.94-.03.64-.11 1.27-.24 1.88-5.23 3.22-9.84 6.01-13.67 8.28-1.1.57-2.14 1.19-3.08 1.85-.98.68-1.84 1.52-2.55 2.49-.86 1.16-.62 2.65.76 4.46.32.34 1.1.99 4.27 2.66 2.37 1.25 5.33 1.88 8.79 1.88 1.32 0 2.59-.4 3.82-1.22 1.04-.82 1.85-1.86 2.43-3.08.56-1.18 1.23-3.15 2.06-6.03.78-2.74 1.46-5.69 2.02-8.77 1.05-.65 1.75-1.15 2.14-1.54.48-.48.76-.99.84-1.52.13-.87-.68-1.57-1.3-2.03zm-7 7.76c-.13.79-.32 1.8-.57 3.01-.41 2-1.41 4.42-2.99 7.22-.88 1.66-2.19 2.39-3.98 2.21-1.85-.19-3.39-.57-4.57-1.12-.97-.45-1.73-.85-2.27-1.19.2-.42.69-.88 1.47-1.35 1.82-1.35 3.78-2.73 5.83-4.12 1.82-1.23 4.19-2.79 7.07-4.66zm2.1-19.54c-.78 1.29-1.57 2.52-2.35 3.66-.44.64-.88 1.26-1.32 1.86-1.25 1.71-2.75 3.25-4.47 4.59-1.23 1-2.54 1.78-3.88 2.32-.77.3-1.36.37-1.6.18s-.32-.77-.22-1.54c.35-1.89 1.25-4.03 2.69-6.36.5-.85 1.09-1.67 1.77-2.47 1.09-1.45 2.38-2.81 3.77-4.02.47-.31.91-.59 1.32-.82.44-.25.7-.33.84-.35h.01c.06 0 .23.06.5.28.36.3.69.63 1.02.99.61.61 1.25 1.18 1.92 1.71z"/><path d="m764.18 60.29c-1.98-1.39-4.11-1.59-5.96-.73-.49.2-1.04.45-1.67.73-.53.24-.69.06-.77-.03-.06-.06-.12-.11-.2-.15-.55-.25-1.12-.46-1.7-.61-.7-.18-1.44-.05-2.19.4-.68.41-1.37 1.09-2.15 2.15-1.13 1.99-2.21 4.21-3.2 6.61-1 2.44-1.66 4.94-1.94 7.4-.21 1.3-.23 2.63-.06 3.97.17 1.35.58 2.71 1.23 4.05.67 1.38 1.58 2.47 2.69 3.24.51.38 1.13.76 1.84 1.11.75.37 1.42.6 2.05.69.39.06.77.09 1.14.09 1.82 0 3.46-.71 4.87-2.13 1.95-1.91 3.7-4.03 5.21-6.31 1.5-2.27 2.67-4.33 3.46-6.12.81-1.83 1.25-3.49 1.29-4.93.04-1.42-.05-2.58-.27-3.5-.71-2.48-1.93-4.47-3.67-5.94zm-2.23 13.32c-1.53 3.18-3.94 6.43-7.15 9.63-.58.5-1.15.94-1.71 1.31-.42.28-.83.33-1.27.18-.52-.18-.97-.5-1.37-.97s-.69-1.05-.88-1.74c-.65-2.09-.71-4.23-.18-6.35.67-2.39 1.35-4.24 2.03-5.48.54-.99.95-1.75 1.22-2.27 1.19.18 1.98.04 2.46-.42.38-.36 1.03-.98 1.93-1.84.81-.78 1.93-1.3 3.37-1.56.56-.13 1.08-.1 1.56.09.51.21.94.51 1.3.94.35.41.55.91.62 1.54.22 1.48-.43 3.81-1.94 6.94z"/><path d="m799.84 85.72c-.42-.49-1.01-1.73-1.49-4.85-.39-2.55-.09-6.64.91-12.16.11-.86.34-1.67.67-2.42.02-.04.03-.08.04-.12.41-1.82.38-2.99-.09-3.68-.46-.67-1.38-1.11-2.79-1.34-.64-.13-1.18-.06-1.61.23-.44.29-.73.78-.85 1.39-.2.63-.42 1.28-.65 1.93-.22.61-.53 1.21-.9 1.77-3.03 4.51-5.71 8.24-7.96 11.09s-3.97 4.87-5.13 6.03c-.27.3-.58.53-.92.7-.23.11-.44.12-.67.04-.45-.51-.77-1.11-.98-1.82-.15-.52-.26-1.75.08-4.64.31-2.35.99-4.86 2.01-7.45 1.01-2.57 1.88-4.25 2.65-5.06.65-.96.87-1.66.68-2.21-.16-.46-.57-.94-1.29-1.52-.4-.31-.84-.57-1.3-.75-.67-.27-1.2-.2-1.78.09-.53.29-.95.66-1.28 1.17-1.91 3.85-3.17 7.41-3.76 10.59-.59 3.16-.87 5.62-.82 7.39.46 2.8 1.24 4.76 2.38 6.01 1.09 1.19 1.97 2 2.69 2.46 1.53.97 3.4.98 4.84-.05.66-.47 1.25-1.01 1.77-1.6 1.49-1.69 3.04-3.63 4.61-5.77 1.26-1.71 2.71-3.64 4.32-5.77-.04 2.1 0 3.83.12 5.13.16 1.69.42 3.19.77 4.45.36 1.31 1 2.51 1.88 3.55.86 1.15 1.8 1.74 2.82 1.74.1 0 .2 0 .3-.02 1.14-.13 1.82-.45 2.12-1s.28-1.14-.06-1.68c-.2-.42-.62-1.01-1.34-1.85z"/><path d="m829.4 57.66c-.49-.6-1.27-.83-2.39-.66-1.43.32-2.74.58-3.89.78-.98.17-2.21.39-3.69.67.25-1.24.49-2.53.71-3.83.18-.69.21-1.42.07-2.19-.15-.87-.63-1.53-1.45-1.97-.56-.23-1.05-.35-1.5-.35h-.3c-.05 0-.11 0-.16.02-.65.18-1.1.62-1.29 1.34-.36 2.27-.66 4.01-.9 5.16-.21 1.03-.42 1.99-.64 2.89-.85.24-1.77.46-2.75.67l-6.18 1.32c-1.08.17-1.32.8-1.36 1.17-.05.43.03.99.23 1.71.23.81.76 1.42 1.52 1.75.72.31 1.45.39 2.21.24.92-.24 1.94-.5 3.04-.78.78-.2 1.55-.37 2.3-.51-.23 1.17-.62 3.17-1.19 6-.75 3.75-1.25 8.04-1.49 12.83.09 1.24.52 2.4 1.29 3.45.79 1.09 1.87 1.78 3.21 2.05.41.08.82.13 1.22.13.88 0 1.72-.2 2.52-.6 1.14-.57 2.09-1.09 2.82-1.53.74-.45 1.61-1.08 2.58-1.84 1.1-.84 1.83-1.78 2.17-2.8.37-1.12.39-1.88.04-2.38-.38-.55-1-.73-1.71-.47-.04.01-.07.03-.1.05-1.45.84-2.98 1.74-4.58 2.68-1.39.82-2.9 1.49-4.51 2.02-.06-.33-.12-.84-.17-1.62-.08-1.16.07-3.05.45-5.63.38-2.6.84-5.2 1.38-7.71.5-2.32 1.03-4.28 1.58-5.81l9.75-2.09c.84-.1 1.39-.37 1.67-.82.26-.41.34-.96.24-1.63-.1-.63-.35-1.2-.76-1.71z"/><path d="m847.92 89.6c.29 2.31.46 4.05.5 5.23 0 .29-.19.55-.47.62-.5.12-.92.23-1.27.35-.2.07-.4.1-.6.1-.33 0-.67-.09-.99-.26-.5-.26-.86-.72-1.07-1.38-.89-1.02-1.37-2.76-1.45-5.3.05-.8.3-1.36.72-1.73.42-.36.98-.52 1.68-.46 1.63.29 2.63 1.27 2.96 2.83zm2.88-41.39c-.29-.5-.77-1-1.49-1.54-.75-.56-1.58-.85-2.48-.85-.75 0-1.73.4-2.11 2.33-.61 3.88-1.17 7.8-1.66 11.65-.5 3.88-.9 7.48-1.18 10.7-.24 3.09-.12 6.07.38 8.89.13.48.29.93.49 1.34.26.54.79.95 1.65 1.25.07.02.13.04.2.04h.06c.39-.04 1.57-.16 1.95-1.07.2-.48.26-1.07.16-1.77-.12-.62-.19-1.3-.23-2.05-.28-3.47.11-8.06 1.14-13.65 1.23-6.81 2.27-11.27 3.09-13.24.46-.93.27-1.62.03-2.04z"/><path d="m0 0h900v140h-900z" fill="none"/></svg>